<?xml version="1.0" encoding="UTF-8" standalone="no"?>
<!DOCTYPE svg PUBLIC "-//W3C//DTD SVG 1.1//EN"
 "http://www.w3.org/Graphics/SVG/1.1/DTD/svg11.dtd">
<!-- Generated by graphviz version 2.42.4 (0)
 -->
<!-- Pages: 1 -->
<svg width="1601pt" height="280pt"
 viewBox="0.00 0.00 1600.50 280.00" xmlns="http://www.w3.org/2000/svg" xmlns:xlink="http://www.w3.org/1999/xlink">
<g id="graph0" class="graph" transform="scale(1 1) rotate(0) translate(4 276)">
<polygon fill="#eeeeee" stroke="transparent" points="-4,4 -4,-276 1596.5,-276 1596.5,4 -4,4"/>
<!-- Text -->
<g id="node1" class="node">
<title>Text</title>
<g id="a_node1"><a xlink:href="http://Text_details.html" xlink:title="&lt;TABLE&gt;">
<polygon fill="#3f51b5" stroke="transparent" points="164.5,-249 164.5,-268 480.5,-268 480.5,-249 164.5,-249"/>
<polygon fill="none" stroke="black" points="164.5,-249 164.5,-268 480.5,-268 480.5,-249 164.5,-249"/>
<text text-anchor="start" x="310" y="-255.4" font-family="Roboto" font-size="12.00" fill="white">Text</text>
<polygon fill="#bbdefb" stroke="transparent" points="164.5,-230 164.5,-249 325.5,-249 325.5,-230 164.5,-230"/>
<polygon fill="none" stroke="black" points="164.5,-230 164.5,-249 325.5,-249 325.5,-230 164.5,-230"/>
<text text-anchor="start" x="225" y="-236.4" font-family="Roboto" font-size="12.00">text_id</text>
<polygon fill="#bbdefb" stroke="transparent" points="325.5,-230 325.5,-249 480.5,-249 480.5,-230 325.5,-230"/>
<polygon fill="none" stroke="black" points="325.5,-230 325.5,-249 480.5,-249 480.5,-230 325.5,-230"/>
<text text-anchor="start" x="362.5" y="-236.4" font-family="Roboto" font-size="12.00">INTEGER (PK)</text>
<polygon fill="#bbdefb" stroke="transparent" points="164.5,-211 164.5,-230 325.5,-230 325.5,-211 164.5,-211"/>
<polygon fill="none" stroke="black" points="164.5,-211 164.5,-230 325.5,-230 325.5,-211 164.5,-211"/>
<text text-anchor="start" x="218" y="-217.4" font-family="Roboto" font-size="12.00">identifier</text>
<polygon fill="#bbdefb" stroke="transparent" points="325.5,-211 325.5,-230 480.5,-230 480.5,-211 325.5,-211"/>
<polygon fill="none" stroke="black" points="325.5,-211 325.5,-230 480.5,-230 480.5,-211 325.5,-211"/>
<text text-anchor="start" x="328.5" y="-217.4" font-family="Roboto" font-size="12.00">VARCHAR (Unique,Index)</text>
<polygon fill="#bbdefb" stroke="transparent" points="164.5,-192 164.5,-211 325.5,-211 325.5,-192 164.5,-192"/>
<polygon fill="none" stroke="black" points="164.5,-192 164.5,-211 325.5,-211 325.5,-192 164.5,-192"/>
<text text-anchor="start" x="233.5" y="-198.4" font-family="Roboto" font-size="12.00">title</text>
<polygon fill="#bbdefb" stroke="transparent" points="325.5,-192 325.5,-211 480.5,-211 480.5,-192 325.5,-192"/>
<polygon fill="none" stroke="black" points="325.5,-192 325.5,-211 480.5,-211 480.5,-192 325.5,-192"/>
<text text-anchor="start" x="368" y="-198.4" font-family="Roboto" font-size="12.00">VARCHAR ()</text>
<polygon fill="#bbdefb" stroke="transparent" points="164.5,-173 164.5,-192 325.5,-192 325.5,-173 164.5,-173"/>
<polygon fill="none" stroke="black" points="164.5,-173 164.5,-192 325.5,-192 325.5,-173 164.5,-173"/>
<text text-anchor="start" x="167.5" y="-179.4" font-family="Roboto" font-size="12.00">approximate_token_count</text>
<polygon fill="#bbdefb" stroke="transparent" points="325.5,-173 325.5,-192 480.5,-192 480.5,-173 325.5,-173"/>
<polygon fill="none" stroke="black" points="325.5,-173 325.5,-192 480.5,-192 480.5,-173 325.5,-173"/>
<text text-anchor="start" x="370" y="-179.4" font-family="Roboto" font-size="12.00">INTEGER ()</text>
<polygon fill="#bbdefb" stroke="transparent" points="164.5,-154 164.5,-173 325.5,-173 325.5,-154 164.5,-154"/>
<polygon fill="none" stroke="black" points="164.5,-154 164.5,-173 325.5,-173 325.5,-154 164.5,-154"/>
<text text-anchor="start" x="207.5" y="-160.4" font-family="Roboto" font-size="12.00">text_form_id</text>
<polygon fill="#bbdefb" stroke="transparent" points="325.5,-154 325.5,-173 480.5,-173 480.5,-154 325.5,-154"/>
<polygon fill="none" stroke="black" points="325.5,-154 325.5,-173 480.5,-173 480.5,-154 325.5,-154"/>
<text text-anchor="start" x="370" y="-160.4" font-family="Roboto" font-size="12.00">INTEGER ()</text>
<polygon fill="#bbdefb" stroke="transparent" points="164.5,-135 164.5,-154 325.5,-154 325.5,-135 164.5,-135"/>
<polygon fill="none" stroke="black" points="164.5,-135 164.5,-154 325.5,-154 325.5,-135 164.5,-135"/>
<text text-anchor="start" x="186" y="-141.4" font-family="Roboto" font-size="12.00">text_source_type_id</text>
<polygon fill="#bbdefb" stroke="transparent" points="325.5,-135 325.5,-154 480.5,-154 480.5,-135 325.5,-135"/>
<polygon fill="none" stroke="black" points="325.5,-135 325.5,-154 480.5,-154 480.5,-135 325.5,-135"/>
<text text-anchor="start" x="370" y="-141.4" font-family="Roboto" font-size="12.00">INTEGER ()</text>
<polygon fill="#bbdefb" stroke="transparent" points="164.5,-116 164.5,-135 325.5,-135 325.5,-116 164.5,-116"/>
<polygon fill="none" stroke="black" points="164.5,-116 164.5,-135 325.5,-135 325.5,-116 164.5,-116"/>
<text text-anchor="start" x="175.5" y="-122.4" font-family="Roboto" font-size="12.00">text_source_subtype_id</text>
<polygon fill="#bbdefb" stroke="transparent" points="325.5,-116 325.5,-135 480.5,-135 480.5,-116 325.5,-116"/>
<polygon fill="none" stroke="black" points="325.5,-116 325.5,-135 480.5,-135 480.5,-116 325.5,-116"/>
<text text-anchor="start" x="370" y="-122.4" font-family="Roboto" font-size="12.00">INTEGER ()</text>
</a>
</g>
</g>
<!-- TextForm -->
<g id="node2" class="node">
<title>TextForm</title>
<g id="a_node2"><a xlink:href="http://TextForm_details.html" xlink:title="&lt;TABLE&gt;">
<polygon fill="#3f51b5" stroke="transparent" points="8.5,-41.5 8.5,-60.5 207.5,-60.5 207.5,-41.5 8.5,-41.5"/>
<polygon fill="none" stroke="black" points="8.5,-41.5 8.5,-60.5 207.5,-60.5 207.5,-41.5 8.5,-41.5"/>
<text text-anchor="start" x="80.5" y="-47.9" font-family="Roboto" font-size="12.00" fill="white">TextForm</text>
<polygon fill="#bbdefb" stroke="transparent" points="8.5,-22.5 8.5,-41.5 89.5,-41.5 89.5,-22.5 8.5,-22.5"/>
<polygon fill="none" stroke="black" points="8.5,-22.5 8.5,-41.5 89.5,-41.5 89.5,-22.5 8.5,-22.5"/>
<text text-anchor="start" x="11.5" y="-28.9" font-family="Roboto" font-size="12.00">text_form_id</text>
<polygon fill="#bbdefb" stroke="transparent" points="89.5,-22.5 89.5,-41.5 207.5,-41.5 207.5,-22.5 89.5,-22.5"/>
<polygon fill="none" stroke="black" points="89.5,-22.5 89.5,-41.5 207.5,-41.5 207.5,-22.5 89.5,-22.5"/>
<text text-anchor="start" x="108" y="-28.9" font-family="Roboto" font-size="12.00">INTEGER (PK)</text>
<polygon fill="#bbdefb" stroke="transparent" points="8.5,-3.5 8.5,-22.5 89.5,-22.5 89.5,-3.5 8.5,-3.5"/>
<polygon fill="none" stroke="black" points="8.5,-3.5 8.5,-22.5 89.5,-22.5 89.5,-3.5 8.5,-3.5"/>
<text text-anchor="start" x="34.5" y="-9.9" font-family="Roboto" font-size="12.00">label</text>
<polygon fill="#bbdefb" stroke="transparent" points="89.5,-3.5 89.5,-22.5 207.5,-22.5 207.5,-3.5 89.5,-3.5"/>
<polygon fill="none" stroke="black" points="89.5,-3.5 89.5,-22.5 207.5,-22.5 207.5,-3.5 89.5,-3.5"/>
<text text-anchor="start" x="92.5" y="-9.9" font-family="Roboto" font-size="12.00">VARCHAR (Unique)</text>
</a>
</g>
</g>
<!-- Text&#45;&gt;TextForm -->
<g id="edge1" class="edge">
<title>Text&#45;&gt;TextForm</title>
<g id="a_edge1"><a xlink:title="Relation between Text and TextForm">
<path fill="none" stroke="#1e88e5" stroke-dasharray="5,2" d="M162.87,-111.69C155.71,-106.08 148.87,-100.18 142.5,-94 136.56,-88.24 131.3,-81.25 126.78,-74.1"/>
<polygon fill="#1e88e5" stroke="#1e88e5" points="129.54,-71.89 121.46,-65.04 123.51,-75.43 129.54,-71.89"/>
</a>
</g>
<text text-anchor="middle" x="167" y="-86" font-family="Roboto" font-size="10.00">text_form</text>
</g>
<!-- TextSourceType -->
<g id="node3" class="node">
<title>TextSourceType</title>
<g id="a_node3"><a xlink:href="http://TextSourceType_details.html" xlink:title="&lt;TABLE&gt;">
<polygon fill="#3f51b5" stroke="transparent" points="241.5,-41.5 241.5,-60.5 483.5,-60.5 483.5,-41.5 241.5,-41.5"/>
<polygon fill="none" stroke="black" points="241.5,-41.5 241.5,-60.5 483.5,-60.5 483.5,-41.5 241.5,-41.5"/>
<text text-anchor="start" x="316" y="-47.9" font-family="Roboto" font-size="12.00" fill="white">TextSourceType</text>
<polygon fill="#bbdefb" stroke="transparent" points="241.5,-22.5 241.5,-41.5 365.5,-41.5 365.5,-22.5 241.5,-22.5"/>
<polygon fill="none" stroke="black" points="241.5,-22.5 241.5,-41.5 365.5,-41.5 365.5,-22.5 241.5,-22.5"/>
<text text-anchor="start" x="244.5" y="-28.9" font-family="Roboto" font-size="12.00">text_source_type_id</text>
<polygon fill="#bbdefb" stroke="transparent" points="365.5,-22.5 365.5,-41.5 483.5,-41.5 483.5,-22.5 365.5,-22.5"/>
<polygon fill="none" stroke="black" points="365.5,-22.5 365.5,-41.5 483.5,-41.5 483.5,-22.5 365.5,-22.5"/>
<text text-anchor="start" x="384" y="-28.9" font-family="Roboto" font-size="12.00">INTEGER (PK)</text>
<polygon fill="#bbdefb" stroke="transparent" points="241.5,-3.5 241.5,-22.5 365.5,-22.5 365.5,-3.5 241.5,-3.5"/>
<polygon fill="none" stroke="black" points="241.5,-3.5 241.5,-22.5 365.5,-22.5 365.5,-3.5 241.5,-3.5"/>
<text text-anchor="start" x="289" y="-9.9" font-family="Roboto" font-size="12.00">label</text>
<polygon fill="#bbdefb" stroke="transparent" points="365.5,-3.5 365.5,-22.5 483.5,-22.5 483.5,-3.5 365.5,-3.5"/>
<polygon fill="none" stroke="black" points="365.5,-3.5 365.5,-22.5 483.5,-22.5 483.5,-3.5 365.5,-3.5"/>
<text text-anchor="start" x="368.5" y="-9.9" font-family="Roboto" font-size="12.00">VARCHAR (Unique)</text>
</a>
</g>
</g>
<!-- Text&#45;&gt;TextSourceType -->
<g id="edge2" class="edge">
<title>Text&#45;&gt;TextSourceType</title>
<g id="a_edge2"><a xlink:title="Relation between Text and TextSourceType">
<path fill="none" stroke="#1e88e5" stroke-dasharray="5,2" d="M264.42,-111.72C262.82,-101.91 264.02,-92.13 269.5,-83 271.78,-79.21 274.46,-75.69 277.44,-72.43"/>
<polygon fill="#1e88e5" stroke="#1e88e5" points="280.1,-74.72 284.9,-65.28 275.26,-69.67 280.1,-74.72"/>
</a>
</g>
<text text-anchor="middle" x="312" y="-86" font-family="Roboto" font-size="10.00">text_source_type</text>
</g>
<!-- TextSourceSubtype -->
<g id="node4" class="node">
<title>TextSourceSubtype</title>
<g id="a_node4"><a xlink:href="http://TextSourceSubtype_details.html" xlink:title="&lt;TABLE&gt;">
<polygon fill="#3f51b5" stroke="transparent" points="518.5,-41.5 518.5,-60.5 781.5,-60.5 781.5,-41.5 518.5,-41.5"/>
<polygon fill="none" stroke="black" points="518.5,-41.5 518.5,-60.5 781.5,-60.5 781.5,-41.5 518.5,-41.5"/>
<text text-anchor="start" x="592.5" y="-47.9" font-family="Roboto" font-size="12.00" fill="white">TextSourceSubtype</text>
<polygon fill="#bbdefb" stroke="transparent" points="518.5,-22.5 518.5,-41.5 663.5,-41.5 663.5,-22.5 518.5,-22.5"/>
<polygon fill="none" stroke="black" points="518.5,-22.5 518.5,-41.5 663.5,-41.5 663.5,-22.5 518.5,-22.5"/>
<text text-anchor="start" x="521.5" y="-28.9" font-family="Roboto" font-size="12.00">text_source_subtype_id</text>
<polygon fill="#bbdefb" stroke="transparent" points="663.5,-22.5 663.5,-41.5 781.5,-41.5 781.5,-22.5 663.5,-22.5"/>
<polygon fill="none" stroke="black" points="663.5,-22.5 663.5,-41.5 781.5,-41.5 781.5,-22.5 663.5,-22.5"/>
<text text-anchor="start" x="682" y="-28.9" font-family="Roboto" font-size="12.00">INTEGER (PK)</text>
<polygon fill="#bbdefb" stroke="transparent" points="518.5,-3.5 518.5,-22.5 663.5,-22.5 663.5,-3.5 518.5,-3.5"/>
<polygon fill="none" stroke="black" points="518.5,-3.5 518.5,-22.5 663.5,-22.5 663.5,-3.5 518.5,-3.5"/>
<text text-anchor="start" x="576.5" y="-9.9" font-family="Roboto" font-size="12.00">label</text>
<polygon fill="#bbdefb" stroke="transparent" points="663.5,-3.5 663.5,-22.5 781.5,-22.5 781.5,-3.5 663.5,-3.5"/>
<polygon fill="none" stroke="black" points="663.5,-3.5 663.5,-22.5 781.5,-22.5 781.5,-3.5 663.5,-3.5"/>
<text text-anchor="start" x="666.5" y="-9.9" font-family="Roboto" font-size="12.00">VARCHAR (Unique)</text>
</a>
</g>
</g>
<!-- Text&#45;&gt;TextSourceSubtype -->
<g id="edge3" class="edge">
<title>Text&#45;&gt;TextSourceSubtype</title>
<g id="a_edge3"><a xlink:title="Relation between Text and TextSourceSubtype">
<path fill="none" stroke="#1e88e5" stroke-dasharray="5,2" d="M419.08,-112C434.99,-101.24 451.77,-91.12 468.5,-83 479.48,-77.67 491.13,-72.84 503.01,-68.47"/>
<polygon fill="#1e88e5" stroke="#1e88e5" points="504.33,-71.72 512.58,-65.07 501.99,-65.12 504.33,-71.72"/>
</a>
</g>
<text text-anchor="middle" x="519.5" y="-86" font-family="Roboto" font-size="10.00">text_source_subtype</text>
</g>
<!-- TextForm&#45;&gt;Text -->
<g id="edge4" class="edge">
<title>TextForm&#45;&gt;Text</title>
<g id="a_edge4"><a xlink:title="Relation between TextForm and Text">
<path fill="none" stroke="#1e88e5" stroke-dasharray="5,2" d="M163.85,-65.05C173.24,-70.78 182.77,-76.88 191.5,-83 201.6,-90.07 211.89,-97.71 222.05,-105.55"/>
<polygon fill="#1e88e5" stroke="#1e88e5" points="220.12,-108.49 230.16,-111.88 224.42,-102.97 220.12,-108.49"/>
</a>
</g>
<text text-anchor="middle" x="219" y="-86" font-family="Roboto" font-size="10.00">texts</text>
</g>
<!-- TextSourceType&#45;&gt;Text -->
<g id="edge5" class="edge">
<title>TextSourceType&#45;&gt;Text</title>
<g id="a_edge5"><a xlink:title="Relation between TextSourceType and Text">
<path fill="none" stroke="#1e88e5" stroke-dasharray="5,2" d="M359.46,-65.1C358.25,-74.47 356.63,-84.71 354.5,-94 353.89,-96.66 353.24,-99.36 352.55,-102.07"/>
<polygon fill="#1e88e5" stroke="#1e88e5" points="349.11,-101.37 349.92,-111.94 355.88,-103.18 349.11,-101.37"/>
</a>
</g>
<text text-anchor="middle" x="370" y="-86" font-family="Roboto" font-size="10.00">texts</text>
</g>
<!-- TextSourceSubtype&#45;&gt;Text -->
<g id="edge6" class="edge">
<title>TextSourceSubtype&#45;&gt;Text</title>
<g id="a_edge6"><a xlink:title="Relation between TextSourceSubtype and Text">
<path fill="none" stroke="#1e88e5" stroke-dasharray="5,2" d="M612.83,-65C599.98,-75.09 585.1,-85.77 570.5,-94 547.73,-106.83 522.93,-118.72 498.1,-129.47"/>
<polygon fill="#1e88e5" stroke="#1e88e5" points="496.4,-126.39 488.58,-133.53 499.15,-132.82 496.4,-126.39"/>
</a>
</g>
<text text-anchor="middle" x="600" y="-86" font-family="Roboto" font-size="10.00">texts</text>
</g>
<!-- Manuscript -->
<g id="node5" class="node">
<title>Manuscript</title>
<g id="a_node5"><a xlink:href="http://Manuscript_details.html" xlink:title="&lt;TABLE&gt;">
<polygon fill="#3f51b5" stroke="transparent" points="989.5,-230 989.5,-249 1358.5,-249 1358.5,-230 989.5,-230"/>
<polygon fill="none" stroke="black" points="989.5,-230 989.5,-249 1358.5,-249 1358.5,-230 989.5,-230"/>
<text text-anchor="start" x="1140.5" y="-236.4" font-family="Roboto" font-size="12.00" fill="white">Manuscript</text>
<polygon fill="#bbdefb" stroke="transparent" points="989.5,-211 989.5,-230 1203.5,-230 1203.5,-211 989.5,-211"/>
<polygon fill="none" stroke="black" points="989.5,-211 989.5,-230 1203.5,-230 1203.5,-211 989.5,-211"/>
<text text-anchor="start" x="1054" y="-217.4" font-family="Roboto" font-size="12.00">manuscript_id</text>
<polygon fill="#bbdefb" stroke="transparent" points="1203.5,-211 1203.5,-230 1358.5,-230 1358.5,-211 1203.5,-211"/>
<polygon fill="none" stroke="black" points="1203.5,-211 1203.5,-230 1358.5,-230 1358.5,-211 1203.5,-211"/>
<text text-anchor="start" x="1240.5" y="-217.4" font-family="Roboto" font-size="12.00">INTEGER (PK)</text>
<polygon fill="#bbdefb" stroke="transparent" points="989.5,-192 989.5,-211 1203.5,-211 1203.5,-192 989.5,-192"/>
<polygon fill="none" stroke="black" points="989.5,-192 989.5,-211 1203.5,-211 1203.5,-192 989.5,-192"/>
<text text-anchor="start" x="1069.5" y="-198.4" font-family="Roboto" font-size="12.00">identifier</text>
<polygon fill="#bbdefb" stroke="transparent" points="1203.5,-192 1203.5,-211 1358.5,-211 1358.5,-192 1203.5,-192"/>
<polygon fill="none" stroke="black" points="1203.5,-192 1203.5,-211 1358.5,-211 1358.5,-192 1203.5,-192"/>
<text text-anchor="start" x="1206.5" y="-198.4" font-family="Roboto" font-size="12.00">VARCHAR (Unique,Index)</text>
<polygon fill="#bbdefb" stroke="transparent" points="989.5,-173 989.5,-192 1203.5,-192 1203.5,-173 989.5,-173"/>
<polygon fill="none" stroke="black" points="989.5,-173 989.5,-192 1203.5,-192 1203.5,-173 989.5,-173"/>
<text text-anchor="start" x="1085" y="-179.4" font-family="Roboto" font-size="12.00">title</text>
<polygon fill="#bbdefb" stroke="transparent" points="1203.5,-173 1203.5,-192 1358.5,-192 1358.5,-173 1203.5,-173"/>
<polygon fill="none" stroke="black" points="1203.5,-173 1203.5,-192 1358.5,-192 1358.5,-173 1203.5,-173"/>
<text text-anchor="start" x="1246" y="-179.4" font-family="Roboto" font-size="12.00">VARCHAR ()</text>
<polygon fill="#bbdefb" stroke="transparent" points="989.5,-154 989.5,-173 1203.5,-173 1203.5,-154 989.5,-154"/>
<polygon fill="none" stroke="black" points="989.5,-154 989.5,-173 1203.5,-173 1203.5,-154 989.5,-154"/>
<text text-anchor="start" x="992.5" y="-160.4" font-family="Roboto" font-size="12.00">manuscript_preservation_status_id</text>
<polygon fill="#bbdefb" stroke="transparent" points="1203.5,-154 1203.5,-173 1358.5,-173 1358.5,-154 1203.5,-154"/>
<polygon fill="none" stroke="black" points="1203.5,-154 1203.5,-173 1358.5,-173 1358.5,-154 1203.5,-154"/>
<text text-anchor="start" x="1248" y="-160.4" font-family="Roboto" font-size="12.00">INTEGER ()</text>
<polygon fill="#bbdefb" stroke="transparent" points="989.5,-135 989.5,-154 1203.5,-154 1203.5,-135 989.5,-135"/>
<polygon fill="none" stroke="black" points="989.5,-135 989.5,-154 1203.5,-154 1203.5,-135 989.5,-135"/>
<text text-anchor="start" x="997" y="-141.4" font-family="Roboto" font-size="12.00">manuscript_holding_institution_id</text>
<polygon fill="#bbdefb" stroke="transparent" points="1203.5,-135 1203.5,-154 1358.5,-154 1358.5,-135 1203.5,-135"/>
<polygon fill="none" stroke="black" points="1203.5,-135 1203.5,-154 1358.5,-154 1358.5,-135 1203.5,-135"/>
<text text-anchor="start" x="1248" y="-141.4" font-family="Roboto" font-size="12.00">INTEGER ()</text>
</a>
</g>
</g>
<!-- ManuscriptPreservationStatus -->
<g id="node6" class="node">
<title>ManuscriptPreservationStatus</title>
<g id="a_node6"><a xlink:href="http://ManuscriptPreservationStatus_details.html" xlink:title="&lt;TABLE&gt;">
<polygon fill="#3f51b5" stroke="transparent" points="815.5,-41.5 815.5,-60.5 1147.5,-60.5 1147.5,-41.5 815.5,-41.5"/>
<polygon fill="none" stroke="black" points="815.5,-41.5 815.5,-60.5 1147.5,-60.5 1147.5,-41.5 815.5,-41.5"/>
<text text-anchor="start" x="892.5" y="-47.9" font-family="Roboto" font-size="12.00" fill="white">ManuscriptPreservationStatus</text>
<polygon fill="#bbdefb" stroke="transparent" points="815.5,-22.5 815.5,-41.5 1029.5,-41.5 1029.5,-22.5 815.5,-22.5"/>
<polygon fill="none" stroke="black" points="815.5,-22.5 815.5,-41.5 1029.5,-41.5 1029.5,-22.5 815.5,-22.5"/>
<text text-anchor="start" x="818.5" y="-28.9" font-family="Roboto" font-size="12.00">manuscript_preservation_status_id</text>
<polygon fill="#bbdefb" stroke="transparent" points="1029.5,-22.5 1029.5,-41.5 1147.5,-41.5 1147.5,-22.5 1029.5,-22.5"/>
<polygon fill="none" stroke="black" points="1029.5,-22.5 1029.5,-41.5 1147.5,-41.5 1147.5,-22.5 1029.5,-22.5"/>
<text text-anchor="start" x="1048" y="-28.9" font-family="Roboto" font-size="12.00">INTEGER (PK)</text>
<polygon fill="#bbdefb" stroke="transparent" points="815.5,-3.5 815.5,-22.5 1029.5,-22.5 1029.5,-3.5 815.5,-3.5"/>
<polygon fill="none" stroke="black" points="815.5,-3.5 815.5,-22.5 1029.5,-22.5 1029.5,-3.5 815.5,-3.5"/>
<text text-anchor="start" x="908" y="-9.9" font-family="Roboto" font-size="12.00">label</text>
<polygon fill="#bbdefb" stroke="transparent" points="1029.5,-3.5 1029.5,-22.5 1147.5,-22.5 1147.5,-3.5 1029.5,-3.5"/>
<polygon fill="none" stroke="black" points="1029.5,-3.5 1029.5,-22.5 1147.5,-22.5 1147.5,-3.5 1029.5,-3.5"/>
<text text-anchor="start" x="1032.5" y="-9.9" font-family="Roboto" font-size="12.00">VARCHAR (Unique)</text>
</a>
</g>
</g>
<!-- Manuscript&#45;&gt;ManuscriptPreservationStatus -->
<g id="edge7" class="edge">
<title>Manuscript&#45;&gt;ManuscriptPreservationStatus</title>
<g id="a_edge7"><a xlink:title="Relation between Manuscript and ManuscriptPreservationStatus">
<path fill="none" stroke="#1e88e5" stroke-dasharray="5,2" d="M1049.68,-130.95C1034.26,-120.08 1019.66,-107.75 1007.5,-94 1002.5,-88.35 998.35,-81.59 994.95,-74.67"/>
<polygon fill="#1e88e5" stroke="#1e88e5" points="998.01,-72.94 990.75,-65.22 991.61,-75.78 998.01,-72.94"/>
</a>
</g>
<text text-anchor="middle" x="1056" y="-86" font-family="Roboto" font-size="10.00">preservation_status</text>
</g>
<!-- ManuscriptHoldingInstitution -->
<g id="node7" class="node">
<title>ManuscriptHoldingInstitution</title>
<g id="a_node7"><a xlink:href="http://ManuscriptHoldingInstitution_details.html" xlink:title="&lt;TABLE&gt;">
<polygon fill="#3f51b5" stroke="transparent" points="1182.5,-41.5 1182.5,-60.5 1505.5,-60.5 1505.5,-41.5 1182.5,-41.5"/>
<polygon fill="none" stroke="black" points="1182.5,-41.5 1182.5,-60.5 1505.5,-60.5 1505.5,-41.5 1182.5,-41.5"/>
<text text-anchor="start" x="1258.5" y="-47.9" font-family="Roboto" font-size="12.00" fill="white">ManuscriptHoldingInstitution</text>
<polygon fill="#bbdefb" stroke="transparent" points="1182.5,-22.5 1182.5,-41.5 1387.5,-41.5 1387.5,-22.5 1182.5,-22.5"/>
<polygon fill="none" stroke="black" points="1182.5,-22.5 1182.5,-41.5 1387.5,-41.5 1387.5,-22.5 1182.5,-22.5"/>
<text text-anchor="start" x="1185.5" y="-28.9" font-family="Roboto" font-size="12.00">manuscript_holding_institution_id</text>
<polygon fill="#bbdefb" stroke="transparent" points="1387.5,-22.5 1387.5,-41.5 1505.5,-41.5 1505.5,-22.5 1387.5,-22.5"/>
<polygon fill="none" stroke="black" points="1387.5,-22.5 1387.5,-41.5 1505.5,-41.5 1505.5,-22.5 1387.5,-22.5"/>
<text text-anchor="start" x="1406" y="-28.9" font-family="Roboto" font-size="12.00">INTEGER (PK)</text>
<polygon fill="#bbdefb" stroke="transparent" points="1182.5,-3.5 1182.5,-22.5 1387.5,-22.5 1387.5,-3.5 1182.5,-3.5"/>
<polygon fill="none" stroke="black" points="1182.5,-3.5 1182.5,-22.5 1387.5,-22.5 1387.5,-3.5 1182.5,-3.5"/>
<text text-anchor="start" x="1267.5" y="-9.9" font-family="Roboto" font-size="12.00">name</text>
<polygon fill="#bbdefb" stroke="transparent" points="1387.5,-3.5 1387.5,-22.5 1505.5,-22.5 1505.5,-3.5 1387.5,-3.5"/>
<polygon fill="none" stroke="black" points="1387.5,-3.5 1387.5,-22.5 1505.5,-22.5 1505.5,-3.5 1387.5,-3.5"/>
<text text-anchor="start" x="1390.5" y="-9.9" font-family="Roboto" font-size="12.00">VARCHAR (Unique)</text>
</a>
</g>
</g>
<!-- Manuscript&#45;&gt;ManuscriptHoldingInstitution -->
<g id="edge8" class="edge">
<title>Manuscript&#45;&gt;ManuscriptHoldingInstitution</title>
<g id="a_edge8"><a xlink:title="Relation between Manuscript and ManuscriptHoldingInstitution">
<path fill="none" stroke="#1e88e5" stroke-dasharray="5,2" d="M1194.44,-130.82C1202.65,-113.69 1213.53,-96.15 1227.5,-83 1232.37,-78.41 1237.74,-74.21 1243.4,-70.38"/>
<polygon fill="#1e88e5" stroke="#1e88e5" points="1245.32,-73.31 1251.9,-65.01 1241.58,-67.39 1245.32,-73.31"/>
</a>
</g>
<text text-anchor="middle" x="1273" y="-86" font-family="Roboto" font-size="10.00">holding_institution</text>
</g>
<!-- ManuscriptPreservationStatus&#45;&gt;Manuscript -->
<g id="edge9" class="edge">
<title>ManuscriptPreservationStatus&#45;&gt;Manuscript</title>
<g id="a_edge9"><a xlink:title="Relation between ManuscriptPreservationStatus and Manuscript">
<path fill="none" stroke="#1e88e5" stroke-dasharray="5,2" d="M1077.56,-65.13C1087.16,-70.31 1096.35,-76.24 1104.5,-83 1117.67,-93.92 1129.16,-108.03 1138.78,-122.42"/>
<polygon fill="#1e88e5" stroke="#1e88e5" points="1135.88,-124.39 1144.23,-130.91 1141.77,-120.6 1135.88,-124.39"/>
</a>
</g>
<text text-anchor="middle" x="1146" y="-86" font-family="Roboto" font-size="10.00">manuscripts</text>
</g>
<!-- ManuscriptHoldingInstitution&#45;&gt;Manuscript -->
<g id="edge10" class="edge">
<title>ManuscriptHoldingInstitution&#45;&gt;Manuscript</title>
<g id="a_edge10"><a xlink:title="Relation between ManuscriptHoldingInstitution and Manuscript">
<path fill="none" stroke="#1e88e5" stroke-dasharray="5,2" d="M1334.39,-65.28C1330.55,-75.16 1325.34,-85.65 1318.5,-94 1309.53,-104.94 1299.01,-115.12 1287.79,-124.45"/>
<polygon fill="#1e88e5" stroke="#1e88e5" points="1285.53,-121.78 1279.93,-130.78 1289.92,-127.24 1285.53,-121.78"/>
</a>
</g>
<text text-anchor="middle" x="1356" y="-86" font-family="Roboto" font-size="10.00">manuscripts</text>
</g>
<!-- Edition -->
<g id="node8" class="node">
<title>Edition</title>
<g id="a_node8"><a xlink:href="http://Edition_details.html" xlink:title="&lt;TABLE&gt;">
<polygon fill="#3f51b5" stroke="transparent" points="1392.5,-220 1392.5,-239 1584.5,-239 1584.5,-220 1392.5,-220"/>
<polygon fill="none" stroke="black" points="1392.5,-220 1392.5,-239 1584.5,-239 1584.5,-220 1392.5,-220"/>
<text text-anchor="start" x="1468" y="-226.4" font-family="Roboto" font-size="12.00" fill="white">Edition</text>
<polygon fill="#bbdefb" stroke="transparent" points="1392.5,-201 1392.5,-220 1497.5,-220 1497.5,-201 1392.5,-201"/>
<polygon fill="none" stroke="black" points="1392.5,-201 1392.5,-220 1497.5,-220 1497.5,-201 1392.5,-201"/>
<text text-anchor="start" x="1416" y="-207.4" font-family="Roboto" font-size="12.00">edition_id</text>
<polygon fill="#bbdefb" stroke="transparent" points="1497.5,-201 1497.5,-220 1584.5,-220 1584.5,-201 1497.5,-201"/>
<polygon fill="none" stroke="black" points="1497.5,-201 1497.5,-220 1584.5,-220 1584.5,-201 1497.5,-201"/>
<text text-anchor="start" x="1500.5" y="-207.4" font-family="Roboto" font-size="12.00">INTEGER (PK)</text>
<polygon fill="#bbdefb" stroke="transparent" points="1392.5,-182 1392.5,-201 1497.5,-201 1497.5,-182 1392.5,-182"/>
<polygon fill="none" stroke="black" points="1392.5,-182 1392.5,-201 1497.5,-201 1497.5,-182 1392.5,-182"/>
<text text-anchor="start" x="1433.5" y="-188.4" font-family="Roboto" font-size="12.00">title</text>
<polygon fill="#bbdefb" stroke="transparent" points="1497.5,-182 1497.5,-201 1584.5,-201 1584.5,-182 1497.5,-182"/>
<polygon fill="none" stroke="black" points="1497.5,-182 1497.5,-201 1584.5,-201 1584.5,-182 1497.5,-182"/>
<text text-anchor="start" x="1506" y="-188.4" font-family="Roboto" font-size="12.00">VARCHAR ()</text>
<polygon fill="#bbdefb" stroke="transparent" points="1392.5,-163 1392.5,-182 1497.5,-182 1497.5,-163 1392.5,-163"/>
<polygon fill="none" stroke="black" points="1392.5,-163 1392.5,-182 1497.5,-182 1497.5,-163 1392.5,-163"/>
<text text-anchor="start" x="1395.5" y="-169.4" font-family="Roboto" font-size="12.00">publication_year</text>
<polygon fill="#bbdefb" stroke="transparent" points="1497.5,-163 1497.5,-182 1584.5,-182 1584.5,-163 1497.5,-163"/>
<polygon fill="none" stroke="black" points="1497.5,-163 1497.5,-182 1584.5,-182 1584.5,-163 1497.5,-163"/>
<text text-anchor="start" x="1508" y="-169.4" font-family="Roboto" font-size="12.00">INTEGER ()</text>
<polygon fill="#bbdefb" stroke="transparent" points="1392.5,-144 1392.5,-163 1497.5,-163 1497.5,-144 1392.5,-144"/>
<polygon fill="none" stroke="black" points="1392.5,-144 1392.5,-163 1497.5,-163 1497.5,-144 1392.5,-144"/>
<text text-anchor="start" x="1425" y="-150.4" font-family="Roboto" font-size="12.00">reprint</text>
<polygon fill="#bbdefb" stroke="transparent" points="1497.5,-144 1497.5,-163 1584.5,-163 1584.5,-144 1497.5,-144"/>
<polygon fill="none" stroke="black" points="1497.5,-144 1497.5,-163 1584.5,-163 1584.5,-144 1497.5,-144"/>
<text text-anchor="start" x="1504.5" y="-150.4" font-family="Roboto" font-size="12.00">BOOLEAN ()</text>
</a>
</g>
</g>
</g>
</svg>
